<mxfile host="app.diagrams.net" agent="Mozilla/5.0 (X11; Ubuntu; Linux x86_64; rv:139.0) Gecko/20100101 Firefox/139.0" version="27.1.4">
  <diagram name="Page-1" id="BlhQUOW_03RDK3afStNq">
    <mxGraphModel dx="1531" dy="941" grid="1" gridSize="10" guides="1" tooltips="1" connect="1" arrows="1" fold="1" page="1" pageScale="1" pageWidth="850" pageHeight="1100" math="0" shadow="0">
      <root>
        <mxCell id="0" />
        <mxCell id="1" parent="0" />
        <mxCell id="Z9vBDN6EsxqwjLQ1cads-1" value="" style="rounded=0;whiteSpace=wrap;html=1;fillColor=#dae8fc;strokeColor=#6c8ebf;" vertex="1" parent="1">
          <mxGeometry x="750" y="730" width="245" height="135" as="geometry" />
        </mxCell>
        <mxCell id="Z9vBDN6EsxqwjLQ1cads-3" value="" style="rounded=0;whiteSpace=wrap;html=1;fillColor=#dae8fc;strokeColor=#6c8ebf;" vertex="1" parent="1">
          <mxGeometry x="1070" y="730" width="220" height="130" as="geometry" />
        </mxCell>
        <mxCell id="Z9vBDN6EsxqwjLQ1cads-8" value="" style="rounded=0;whiteSpace=wrap;html=1;fillColor=#f5f5f5;strokeColor=#666666;fontColor=#333333;" vertex="1" parent="1">
          <mxGeometry x="820" y="420" width="450" height="170" as="geometry" />
        </mxCell>
        <mxCell id="Z9vBDN6EsxqwjLQ1cads-9" value="" style="rounded=0;whiteSpace=wrap;html=1;fillColor=#f5f5f5;fontColor=#333333;strokeColor=#666666;" vertex="1" parent="1">
          <mxGeometry x="480" y="720" width="140" height="80" as="geometry" />
        </mxCell>
        <mxCell id="Z9vBDN6EsxqwjLQ1cads-10" value="" style="rounded=0;whiteSpace=wrap;html=1;fillColor=#f5f5f5;fontColor=#333333;strokeColor=#666666;" vertex="1" parent="1">
          <mxGeometry x="610" y="90" width="460" height="130" as="geometry" />
        </mxCell>
        <mxCell id="Z9vBDN6EsxqwjLQ1cads-11" value="&lt;div&gt;RegNet v2&lt;/div&gt;&lt;div&gt;Flask model service&lt;/div&gt;" style="rounded=0;whiteSpace=wrap;html=1;fillColor=#f5f5f5;strokeColor=#666666;fontColor=#333333;" vertex="1" parent="1">
          <mxGeometry x="1260" y="135" width="120" height="40" as="geometry" />
        </mxCell>
        <mxCell id="Z9vBDN6EsxqwjLQ1cads-20" value="" style="curved=1;endArrow=classic;html=1;rounded=0;entryX=0;entryY=0.25;entryDx=0;entryDy=0;exitX=1;exitY=0.25;exitDx=0;exitDy=0;" edge="1" parent="1" source="Z9vBDN6EsxqwjLQ1cads-114" target="Z9vBDN6EsxqwjLQ1cads-11">
          <mxGeometry width="50" height="50" relative="1" as="geometry">
            <mxPoint x="940" y="102.5" as="sourcePoint" />
            <mxPoint x="1150" y="110" as="targetPoint" />
            <Array as="points">
              <mxPoint x="1160" y="123" />
            </Array>
          </mxGeometry>
        </mxCell>
        <mxCell id="Z9vBDN6EsxqwjLQ1cads-21" value="" style="curved=1;endArrow=classic;html=1;rounded=0;exitX=0.5;exitY=1;exitDx=0;exitDy=0;entryX=0;entryY=0.5;entryDx=0;entryDy=0;" edge="1" parent="1" source="Z9vBDN6EsxqwjLQ1cads-114" target="Z9vBDN6EsxqwjLQ1cads-43">
          <mxGeometry width="50" height="50" relative="1" as="geometry">
            <mxPoint x="940" y="260" as="sourcePoint" />
            <mxPoint x="810" y="485" as="targetPoint" />
            <Array as="points">
              <mxPoint x="1000" y="330" />
              <mxPoint x="840" y="330" />
              <mxPoint x="760" y="350" />
              <mxPoint x="740" y="420" />
              <mxPoint x="770" y="480" />
            </Array>
          </mxGeometry>
        </mxCell>
        <mxCell id="Z9vBDN6EsxqwjLQ1cads-22" value="" style="curved=1;endArrow=classic;html=1;rounded=0;exitX=0;exitY=0.75;exitDx=0;exitDy=0;entryX=1;entryY=0.75;entryDx=0;entryDy=0;" edge="1" parent="1" source="Z9vBDN6EsxqwjLQ1cads-11" target="Z9vBDN6EsxqwjLQ1cads-114">
          <mxGeometry width="50" height="50" relative="1" as="geometry">
            <mxPoint x="990" y="290" as="sourcePoint" />
            <mxPoint x="1070" y="190" as="targetPoint" />
            <Array as="points">
              <mxPoint x="1150" y="200" />
            </Array>
          </mxGeometry>
        </mxCell>
        <mxCell id="Z9vBDN6EsxqwjLQ1cads-23" value="" style="curved=1;endArrow=classic;html=1;rounded=0;exitX=0.5;exitY=1;exitDx=0;exitDy=0;entryX=0;entryY=0.5;entryDx=0;entryDy=0;" edge="1" parent="1" source="Z9vBDN6EsxqwjLQ1cads-114" target="Z9vBDN6EsxqwjLQ1cads-42">
          <mxGeometry width="50" height="50" relative="1" as="geometry">
            <mxPoint x="750" y="250" as="sourcePoint" />
            <mxPoint x="810" y="525" as="targetPoint" />
            <Array as="points">
              <mxPoint x="980" y="250" />
              <mxPoint x="950" y="310" />
              <mxPoint x="730" y="310" />
              <mxPoint x="680" y="410" />
              <mxPoint x="720" y="525" />
            </Array>
          </mxGeometry>
        </mxCell>
        <mxCell id="Z9vBDN6EsxqwjLQ1cads-24" value="&lt;div&gt;HTTP request:&lt;/div&gt;&lt;div&gt;POST &#39;{&quot;view&quot;: 1}&#39;&lt;/div&gt;" style="text;html=1;align=center;verticalAlign=middle;whiteSpace=wrap;rounded=0;" vertex="1" parent="1">
          <mxGeometry x="1085" y="100" width="160" height="30" as="geometry" />
        </mxCell>
        <mxCell id="Z9vBDN6EsxqwjLQ1cads-29" value="" style="curved=1;endArrow=classic;html=1;rounded=0;exitX=1;exitY=0.5;exitDx=0;exitDy=0;" edge="1" parent="1" source="Z9vBDN6EsxqwjLQ1cads-101">
          <mxGeometry width="50" height="50" relative="1" as="geometry">
            <mxPoint x="1130" y="480" as="sourcePoint" />
            <mxPoint x="1460" y="530" as="targetPoint" />
            <Array as="points">
              <mxPoint x="1310" y="530" />
              <mxPoint x="1410" y="540" />
            </Array>
          </mxGeometry>
        </mxCell>
        <mxCell id="Z9vBDN6EsxqwjLQ1cads-38" value="HTTP response: X,Y,Z,RotvecX,RotvecY,RotvecZ" style="text;html=1;align=center;verticalAlign=middle;whiteSpace=wrap;rounded=0;" vertex="1" parent="1">
          <mxGeometry x="1085" y="200" width="180" height="30" as="geometry" />
        </mxCell>
        <mxCell id="Z9vBDN6EsxqwjLQ1cads-40" value="ROS service call: {}" style="text;html=1;align=center;verticalAlign=middle;whiteSpace=wrap;rounded=0;" vertex="1" parent="1">
          <mxGeometry x="785" y="360" width="125" height="30" as="geometry" />
        </mxCell>
        <mxCell id="Z9vBDN6EsxqwjLQ1cads-41" value="Multiview Saver ROS2 node" style="text;html=1;align=center;verticalAlign=middle;whiteSpace=wrap;rounded=0;" vertex="1" parent="1">
          <mxGeometry x="830" y="430" width="90" height="30" as="geometry" />
        </mxCell>
        <mxCell id="Z9vBDN6EsxqwjLQ1cads-42" value="/multiview_saver/capture_point" style="rounded=0;whiteSpace=wrap;html=1;" vertex="1" parent="1">
          <mxGeometry x="830" y="510" width="180" height="30" as="geometry" />
        </mxCell>
        <mxCell id="Z9vBDN6EsxqwjLQ1cads-99" style="edgeStyle=orthogonalEdgeStyle;rounded=0;orthogonalLoop=1;jettySize=auto;html=1;entryX=0;entryY=0.5;entryDx=0;entryDy=0;" edge="1" parent="1" source="Z9vBDN6EsxqwjLQ1cads-43" target="Z9vBDN6EsxqwjLQ1cads-97">
          <mxGeometry relative="1" as="geometry" />
        </mxCell>
        <mxCell id="Z9vBDN6EsxqwjLQ1cads-43" value="/multiview_saver/restart_count" style="rounded=0;whiteSpace=wrap;html=1;" vertex="1" parent="1">
          <mxGeometry x="830" y="470" width="180" height="30" as="geometry" />
        </mxCell>
        <mxCell id="Z9vBDN6EsxqwjLQ1cads-47" value="ROS service call: {}" style="text;html=1;align=center;verticalAlign=middle;whiteSpace=wrap;rounded=0;" vertex="1" parent="1">
          <mxGeometry x="610" y="430" width="125" height="30" as="geometry" />
        </mxCell>
        <mxCell id="Z9vBDN6EsxqwjLQ1cads-48" value="&lt;b&gt;A1&lt;/b&gt;" style="ellipse;whiteSpace=wrap;html=1;aspect=fixed;fillColor=#f8cecc;strokeColor=#b85450;" vertex="1" parent="1">
          <mxGeometry x="835" y="340" width="20" height="20" as="geometry" />
        </mxCell>
        <mxCell id="Z9vBDN6EsxqwjLQ1cads-50" value="&lt;b&gt;B1&lt;/b&gt;" style="ellipse;whiteSpace=wrap;html=1;aspect=fixed;fillColor=#f8cecc;strokeColor=#b85450;" vertex="1" parent="1">
          <mxGeometry x="662.5" y="410" width="20" height="20" as="geometry" />
        </mxCell>
        <mxCell id="Z9vBDN6EsxqwjLQ1cads-51" value="&lt;b&gt;B5&lt;/b&gt;" style="ellipse;whiteSpace=wrap;html=1;aspect=fixed;fillColor=#f8cecc;strokeColor=#b85450;" vertex="1" parent="1">
          <mxGeometry x="1320" y="500" width="20" height="20" as="geometry" />
        </mxCell>
        <mxCell id="Z9vBDN6EsxqwjLQ1cads-52" value="&lt;b&gt;C1&lt;/b&gt;" style="ellipse;whiteSpace=wrap;html=1;aspect=fixed;fillColor=#f8cecc;strokeColor=#b85450;" vertex="1" parent="1">
          <mxGeometry x="1155" y="70" width="20" height="20" as="geometry" />
        </mxCell>
        <mxCell id="Z9vBDN6EsxqwjLQ1cads-54" value="&lt;b&gt;D1&lt;/b&gt;" style="ellipse;whiteSpace=wrap;html=1;aspect=fixed;fillColor=#f8cecc;strokeColor=#b85450;" vertex="1" parent="1">
          <mxGeometry x="625" y="600" width="20" height="20" as="geometry" />
        </mxCell>
        <mxCell id="Z9vBDN6EsxqwjLQ1cads-56" value="OrbbecSDK ROS2 node" style="text;html=1;align=center;verticalAlign=middle;whiteSpace=wrap;rounded=0;" vertex="1" parent="1">
          <mxGeometry x="1075" y="735" width="80" height="30" as="geometry" />
        </mxCell>
        <mxCell id="Z9vBDN6EsxqwjLQ1cads-57" value="/camera/color/image_raw" style="rounded=0;whiteSpace=wrap;html=1;" vertex="1" parent="1">
          <mxGeometry x="1080" y="770" width="190" height="30" as="geometry" />
        </mxCell>
        <mxCell id="Z9vBDN6EsxqwjLQ1cads-58" value="/camera/depth_registered/points" style="rounded=0;whiteSpace=wrap;html=1;" vertex="1" parent="1">
          <mxGeometry x="1080" y="810" width="190" height="30" as="geometry" />
        </mxCell>
        <mxCell id="Z9vBDN6EsxqwjLQ1cads-60" value="UR ROS2 driver" style="text;html=1;align=center;verticalAlign=middle;whiteSpace=wrap;rounded=0;" vertex="1" parent="1">
          <mxGeometry x="755" y="735" width="100" height="30" as="geometry" />
        </mxCell>
        <mxCell id="Z9vBDN6EsxqwjLQ1cads-62" value="/urscript_interface/script_command" style="rounded=0;whiteSpace=wrap;html=1;" vertex="1" parent="1">
          <mxGeometry x="760" y="777.5" width="210" height="30" as="geometry" />
        </mxCell>
        <mxCell id="Z9vBDN6EsxqwjLQ1cads-63" value="/tcp_pose_broadcaster/pose" style="rounded=0;whiteSpace=wrap;html=1;" vertex="1" parent="1">
          <mxGeometry x="760" y="815" width="210" height="30" as="geometry" />
        </mxCell>
        <mxCell id="Z9vBDN6EsxqwjLQ1cads-65" value="/gripper/cmd" style="rounded=0;whiteSpace=wrap;html=1;" vertex="1" parent="1">
          <mxGeometry x="490" y="760" width="120" height="30" as="geometry" />
        </mxCell>
        <mxCell id="Z9vBDN6EsxqwjLQ1cads-66" value="robotiq sock driver" style="text;html=1;align=center;verticalAlign=middle;whiteSpace=wrap;rounded=0;" vertex="1" parent="1">
          <mxGeometry x="485" y="725" width="110" height="30" as="geometry" />
        </mxCell>
        <mxCell id="Z9vBDN6EsxqwjLQ1cads-67" value="" style="curved=1;endArrow=classic;html=1;rounded=0;exitX=1;exitY=0.5;exitDx=0;exitDy=0;entryX=0.5;entryY=1;entryDx=0;entryDy=0;" edge="1" parent="1" source="Z9vBDN6EsxqwjLQ1cads-63" target="Z9vBDN6EsxqwjLQ1cads-101">
          <mxGeometry width="50" height="50" relative="1" as="geometry">
            <mxPoint x="950" y="750" as="sourcePoint" />
            <mxPoint x="930" y="680" as="targetPoint" />
            <Array as="points">
              <mxPoint x="1030" y="840" />
              <mxPoint x="1045" y="690" />
              <mxPoint x="1160" y="670" />
            </Array>
          </mxGeometry>
        </mxCell>
        <mxCell id="Z9vBDN6EsxqwjLQ1cads-68" value="" style="curved=1;endArrow=classic;html=1;rounded=0;exitX=1;exitY=0.5;exitDx=0;exitDy=0;entryX=0.5;entryY=1;entryDx=0;entryDy=0;" edge="1" parent="1" source="Z9vBDN6EsxqwjLQ1cads-57" target="Z9vBDN6EsxqwjLQ1cads-101">
          <mxGeometry width="50" height="50" relative="1" as="geometry">
            <mxPoint x="960" y="920" as="sourcePoint" />
            <mxPoint x="930" y="680" as="targetPoint" />
            <Array as="points">
              <mxPoint x="1350" y="780" />
              <mxPoint x="1350" y="680" />
              <mxPoint x="1210" y="670" />
              <mxPoint x="1160" y="640" />
            </Array>
          </mxGeometry>
        </mxCell>
        <mxCell id="Z9vBDN6EsxqwjLQ1cads-69" value="" style="curved=1;endArrow=classic;html=1;rounded=0;exitX=1;exitY=0.5;exitDx=0;exitDy=0;entryX=0.5;entryY=1;entryDx=0;entryDy=0;" edge="1" parent="1" source="Z9vBDN6EsxqwjLQ1cads-58" target="Z9vBDN6EsxqwjLQ1cads-101">
          <mxGeometry width="50" height="50" relative="1" as="geometry">
            <mxPoint x="1160" y="915" as="sourcePoint" />
            <mxPoint x="930" y="680" as="targetPoint" />
            <Array as="points">
              <mxPoint x="1390" y="830" />
              <mxPoint x="1420" y="680" />
              <mxPoint x="1300" y="660" />
              <mxPoint x="1170" y="650" />
            </Array>
          </mxGeometry>
        </mxCell>
        <mxCell id="Z9vBDN6EsxqwjLQ1cads-70" value="TCP pose" style="text;html=1;align=center;verticalAlign=middle;whiteSpace=wrap;rounded=0;" vertex="1" parent="1">
          <mxGeometry x="955" y="680" width="60" height="30" as="geometry" />
        </mxCell>
        <mxCell id="Z9vBDN6EsxqwjLQ1cads-71" value="RGB image" style="text;html=1;align=center;verticalAlign=middle;whiteSpace=wrap;rounded=0;" vertex="1" parent="1">
          <mxGeometry x="1200" y="675" width="60" height="30" as="geometry" />
        </mxCell>
        <mxCell id="Z9vBDN6EsxqwjLQ1cads-73" value="colored pointcloud" style="text;html=1;align=center;verticalAlign=middle;whiteSpace=wrap;rounded=0;" vertex="1" parent="1">
          <mxGeometry x="1310" y="620" width="60" height="30" as="geometry" />
        </mxCell>
        <mxCell id="Z9vBDN6EsxqwjLQ1cads-74" value="&lt;b&gt;B2&lt;/b&gt;" style="ellipse;whiteSpace=wrap;html=1;aspect=fixed;fillColor=#f8cecc;strokeColor=#b85450;" vertex="1" parent="1">
          <mxGeometry x="930" y="680" width="20" height="20" as="geometry" />
        </mxCell>
        <mxCell id="Z9vBDN6EsxqwjLQ1cads-75" value="&lt;b&gt;B3&lt;/b&gt;" style="ellipse;whiteSpace=wrap;html=1;aspect=fixed;fillColor=#f8cecc;strokeColor=#b85450;" vertex="1" parent="1">
          <mxGeometry x="1185" y="675" width="20" height="20" as="geometry" />
        </mxCell>
        <mxCell id="Z9vBDN6EsxqwjLQ1cads-76" value="&lt;b&gt;B4&lt;/b&gt;" style="ellipse;whiteSpace=wrap;html=1;aspect=fixed;fillColor=#f8cecc;strokeColor=#b85450;" vertex="1" parent="1">
          <mxGeometry x="1280" y="620" width="20" height="20" as="geometry" />
        </mxCell>
        <mxCell id="Z9vBDN6EsxqwjLQ1cads-77" value="&lt;b&gt;C3&lt;/b&gt;" style="ellipse;whiteSpace=wrap;html=1;aspect=fixed;fillColor=#f8cecc;strokeColor=#b85450;" vertex="1" parent="1">
          <mxGeometry x="1165" y="240" width="20" height="20" as="geometry" />
        </mxCell>
        <mxCell id="Z9vBDN6EsxqwjLQ1cads-80" value="" style="curved=1;endArrow=classic;html=1;rounded=0;entryX=0.5;entryY=1;entryDx=0;entryDy=0;" edge="1" parent="1" target="Z9vBDN6EsxqwjLQ1cads-11">
          <mxGeometry width="50" height="50" relative="1" as="geometry">
            <mxPoint x="1560" y="420" as="sourcePoint" />
            <mxPoint x="1580" y="280" as="targetPoint" />
            <Array as="points">
              <mxPoint x="1550" y="390" />
              <mxPoint x="1220" y="330" />
            </Array>
          </mxGeometry>
        </mxCell>
        <mxCell id="Z9vBDN6EsxqwjLQ1cads-81" value="&lt;b&gt;C2&lt;/b&gt;" style="ellipse;whiteSpace=wrap;html=1;aspect=fixed;fillColor=#f8cecc;strokeColor=#b85450;" vertex="1" parent="1">
          <mxGeometry x="1310" y="305" width="20" height="20" as="geometry" />
        </mxCell>
        <mxCell id="Z9vBDN6EsxqwjLQ1cads-83" value="Read files" style="text;html=1;align=center;verticalAlign=middle;whiteSpace=wrap;rounded=0;" vertex="1" parent="1">
          <mxGeometry x="1330" y="305" width="70" height="30" as="geometry" />
        </mxCell>
        <mxCell id="Z9vBDN6EsxqwjLQ1cads-85" value="Write files" style="text;html=1;align=center;verticalAlign=middle;whiteSpace=wrap;rounded=0;" vertex="1" parent="1">
          <mxGeometry x="1340" y="500" width="70" height="30" as="geometry" />
        </mxCell>
        <mxCell id="Z9vBDN6EsxqwjLQ1cads-86" value="" style="curved=1;endArrow=classic;html=1;rounded=0;entryX=0;entryY=0.5;entryDx=0;entryDy=0;exitX=0.5;exitY=1;exitDx=0;exitDy=0;" edge="1" parent="1" source="Z9vBDN6EsxqwjLQ1cads-114" target="Z9vBDN6EsxqwjLQ1cads-62">
          <mxGeometry width="50" height="50" relative="1" as="geometry">
            <mxPoint x="1390" y="560" as="sourcePoint" />
            <mxPoint x="1260" y="360" as="targetPoint" />
            <Array as="points">
              <mxPoint x="990" y="280" />
              <mxPoint x="810" y="280" />
              <mxPoint x="630" y="310" />
              <mxPoint x="540" y="430" />
              <mxPoint x="610" y="730" />
            </Array>
          </mxGeometry>
        </mxCell>
        <mxCell id="Z9vBDN6EsxqwjLQ1cads-87" value="" style="curved=1;endArrow=classic;html=1;rounded=0;entryX=0;entryY=0.5;entryDx=0;entryDy=0;exitX=0.5;exitY=1;exitDx=0;exitDy=0;" edge="1" parent="1" source="Z9vBDN6EsxqwjLQ1cads-114" target="Z9vBDN6EsxqwjLQ1cads-65">
          <mxGeometry width="50" height="50" relative="1" as="geometry">
            <mxPoint x="850" y="400" as="sourcePoint" />
            <mxPoint x="680" y="943" as="targetPoint" />
            <Array as="points">
              <mxPoint x="1000" y="270" />
              <mxPoint x="530" y="260" />
              <mxPoint x="410" y="350" />
              <mxPoint x="380" y="530" />
              <mxPoint x="410" y="720" />
            </Array>
          </mxGeometry>
        </mxCell>
        <mxCell id="Z9vBDN6EsxqwjLQ1cads-88" value="&lt;b&gt;D1&lt;/b&gt;" style="ellipse;whiteSpace=wrap;html=1;aspect=fixed;fillColor=#f8cecc;strokeColor=#b85450;" vertex="1" parent="1">
          <mxGeometry x="625" y="600" width="20" height="20" as="geometry" />
        </mxCell>
        <mxCell id="Z9vBDN6EsxqwjLQ1cads-89" value="&lt;b&gt;E1&lt;/b&gt;" style="ellipse;whiteSpace=wrap;html=1;aspect=fixed;fillColor=#f8cecc;strokeColor=#b85450;" vertex="1" parent="1">
          <mxGeometry x="415" y="550" width="20" height="20" as="geometry" />
        </mxCell>
        <mxCell id="Z9vBDN6EsxqwjLQ1cads-91" value="Move robot arm" style="text;html=1;align=center;verticalAlign=middle;whiteSpace=wrap;rounded=0;" vertex="1" parent="1">
          <mxGeometry x="595" y="630" width="80" height="30" as="geometry" />
        </mxCell>
        <mxCell id="Z9vBDN6EsxqwjLQ1cads-92" value="Move robot gripper finger" style="text;html=1;align=center;verticalAlign=middle;whiteSpace=wrap;rounded=0;" vertex="1" parent="1">
          <mxGeometry x="395" y="580" width="85" height="30" as="geometry" />
        </mxCell>
        <mxCell id="Z9vBDN6EsxqwjLQ1cads-93" value="&lt;h1 style=&quot;margin-top: 0px;&quot;&gt;Grasping Scripts System Diagram&lt;/h1&gt;&lt;p&gt;&lt;font style=&quot;font-size: 16px;&quot;&gt;&lt;b&gt;Functionalities:&lt;/b&gt;&lt;/font&gt;&lt;/p&gt;&lt;p&gt;&lt;font style=&quot;font-size: 14px;&quot;&gt;&lt;b&gt;A:&lt;/b&gt; Restart file save count&lt;/font&gt;&lt;/p&gt;&lt;p&gt;&lt;font style=&quot;font-size: 14px;&quot;&gt;&lt;b&gt;B:&lt;/b&gt; Capture data at the view point&lt;/font&gt;&lt;/p&gt;&lt;p&gt;&lt;font style=&quot;font-size: 14px;&quot;&gt;&lt;b&gt;C:&lt;/b&gt; Call grasping generation model service&lt;/font&gt;&lt;/p&gt;&lt;p&gt;&lt;font style=&quot;font-size: 14px;&quot;&gt;&lt;b&gt;D:&lt;/b&gt;&amp;nbsp;Move robot arm&lt;/font&gt;&lt;/p&gt;&lt;p&gt;&lt;font style=&quot;font-size: 14px;&quot;&gt;&lt;b&gt;E:&lt;/b&gt;&amp;nbsp;Move robot gripper finger&lt;/font&gt;&lt;/p&gt;&lt;p&gt;&lt;br&gt;&lt;/p&gt;&lt;p&gt;&lt;font style=&quot;font-size: 16px;&quot;&gt;&lt;b&gt;Grasping procedure:&lt;/b&gt;&lt;/font&gt;&lt;/p&gt;&lt;p&gt;&lt;font style=&quot;font-size: 14px;&quot;&gt;1. Move robot arm to HOME view&lt;/font&gt;&lt;/p&gt;&lt;p&gt;&lt;font style=&quot;font-size: 14px;&quot;&gt;2. Wait 3 sec&lt;/font&gt;&lt;/p&gt;&lt;p&gt;&lt;font style=&quot;font-size: 14px;&quot;&gt;3.&amp;nbsp;&lt;font&gt;Restart file save count&lt;/font&gt;&lt;/font&gt;&lt;/p&gt;&lt;p&gt;&lt;font style=&quot;font-size: 14px;&quot;&gt;4.Wait 3 sec&lt;font&gt;&amp;nbsp;&lt;/font&gt;&lt;/font&gt;&lt;/p&gt;&lt;p&gt;&lt;font style=&quot;font-size: 14px;&quot;&gt;5.&amp;nbsp;&lt;font&gt;Capture data at the view point&lt;/font&gt;&lt;/font&gt;&lt;/p&gt;&lt;p&gt;&lt;font style=&quot;font-size: 14px;&quot;&gt;&lt;font&gt;6.&amp;nbsp;&lt;/font&gt;Wait 7 sec&lt;/font&gt;&lt;/p&gt;&lt;p&gt;&lt;font style=&quot;font-size: 14px;&quot;&gt;7.&amp;nbsp;&lt;/font&gt;&lt;font style=&quot;font-size: 14px;&quot;&gt;Call grasping generation model service&lt;/font&gt;&lt;/p&gt;&lt;p&gt;&lt;font style=&quot;font-size: 14px;&quot;&gt;8. Wait 2 sec&lt;/font&gt;&lt;/p&gt;&lt;p&gt;&lt;font style=&quot;font-size: 14px;&quot;&gt;9. Move robot arm to grasping pose.&lt;/font&gt;&lt;/p&gt;&lt;p&gt;&lt;font style=&quot;font-size: 14px;&quot;&gt;10. ...&lt;/font&gt;&lt;/p&gt;" style="text;html=1;whiteSpace=wrap;overflow=hidden;rounded=0;" vertex="1" parent="1">
          <mxGeometry x="40" y="40" width="280" height="710" as="geometry" />
        </mxCell>
        <mxCell id="Z9vBDN6EsxqwjLQ1cads-97" value="(A1.5): Restart save count to 1" style="shape=process;whiteSpace=wrap;html=1;backgroundOutline=1;" vertex="1" parent="1">
          <mxGeometry x="1050" y="470" width="210" height="30" as="geometry" />
        </mxCell>
        <mxCell id="Z9vBDN6EsxqwjLQ1cads-101" value="&lt;div&gt;(B1.5): Aquire data.&lt;/div&gt;&lt;div&gt;(B4.5): Post-processing data&lt;/div&gt;" style="shape=process;whiteSpace=wrap;html=1;backgroundOutline=1;" vertex="1" parent="1">
          <mxGeometry x="1050" y="510" width="210" height="60" as="geometry" />
        </mxCell>
        <mxCell id="Z9vBDN6EsxqwjLQ1cads-103" value="" style="curved=1;endArrow=classic;html=1;rounded=0;exitX=1;exitY=0.5;exitDx=0;exitDy=0;entryX=0;entryY=0.5;entryDx=0;entryDy=0;" edge="1" parent="1" source="Z9vBDN6EsxqwjLQ1cads-42" target="Z9vBDN6EsxqwjLQ1cads-101">
          <mxGeometry width="50" height="50" relative="1" as="geometry">
            <mxPoint x="1030" y="600" as="sourcePoint" />
            <mxPoint x="1080" y="550" as="targetPoint" />
            <Array as="points">
              <mxPoint x="1040" y="520" />
              <mxPoint x="1030" y="550" />
            </Array>
          </mxGeometry>
        </mxCell>
        <mxCell id="Z9vBDN6EsxqwjLQ1cads-106" value="" style="group" vertex="1" connectable="0" parent="1">
          <mxGeometry x="1460" y="420" width="180" height="200" as="geometry" />
        </mxCell>
        <mxCell id="Z9vBDN6EsxqwjLQ1cads-37" value="" style="shape=dataStorage;whiteSpace=wrap;html=1;fixedSize=1;container=0;" vertex="1" connectable="0" parent="Z9vBDN6EsxqwjLQ1cads-106">
          <mxGeometry width="180" height="200" as="geometry" />
        </mxCell>
        <mxCell id="Z9vBDN6EsxqwjLQ1cads-36" value="&lt;div&gt;RGB image&lt;/div&gt;&lt;div&gt;(rgb_img_1.png)&lt;/div&gt;" style="rounded=0;whiteSpace=wrap;html=1;" vertex="1" parent="Z9vBDN6EsxqwjLQ1cads-106">
          <mxGeometry x="30" y="140" width="120" height="40" as="geometry" />
        </mxCell>
        <mxCell id="Z9vBDN6EsxqwjLQ1cads-31" value="Disk" style="text;html=1;align=center;verticalAlign=middle;whiteSpace=wrap;rounded=0;" vertex="1" parent="Z9vBDN6EsxqwjLQ1cads-106">
          <mxGeometry x="20" width="60" height="30" as="geometry" />
        </mxCell>
        <mxCell id="Z9vBDN6EsxqwjLQ1cads-34" value="&lt;div&gt;pointcloud file&lt;/div&gt;&lt;div&gt;(pcd_1.glb)&lt;/div&gt;" style="rounded=0;whiteSpace=wrap;html=1;" vertex="1" parent="Z9vBDN6EsxqwjLQ1cads-106">
          <mxGeometry x="30" y="40" width="120" height="40" as="geometry" />
        </mxCell>
        <mxCell id="Z9vBDN6EsxqwjLQ1cads-35" value="&lt;div&gt;robot state file&lt;/div&gt;&lt;div&gt;(robot_state_1.yaml)&lt;/div&gt;" style="rounded=0;whiteSpace=wrap;html=1;" vertex="1" parent="Z9vBDN6EsxqwjLQ1cads-106">
          <mxGeometry x="30" y="90" width="120" height="40" as="geometry" />
        </mxCell>
        <mxCell id="Z9vBDN6EsxqwjLQ1cads-116" style="edgeStyle=orthogonalEdgeStyle;rounded=0;orthogonalLoop=1;jettySize=auto;html=1;entryX=0;entryY=0.5;entryDx=0;entryDy=0;" edge="1" parent="1" source="Z9vBDN6EsxqwjLQ1cads-107" target="Z9vBDN6EsxqwjLQ1cads-114">
          <mxGeometry relative="1" as="geometry" />
        </mxCell>
        <mxCell id="Z9vBDN6EsxqwjLQ1cads-107" value="/grasp_scripts/grasp_and_place" style="rounded=0;whiteSpace=wrap;html=1;" vertex="1" parent="1">
          <mxGeometry x="622.5" y="140" width="255" height="30" as="geometry" />
        </mxCell>
        <mxCell id="Z9vBDN6EsxqwjLQ1cads-108" value="Grasp Scripts&lt;br&gt;ROS2 node" style="text;html=1;align=center;verticalAlign=middle;whiteSpace=wrap;rounded=0;" vertex="1" parent="1">
          <mxGeometry x="665" y="100" width="85" height="30" as="geometry" />
        </mxCell>
        <mxCell id="Z9vBDN6EsxqwjLQ1cads-109" value="/grasp_scripts/grasp_and_place_three_view" style="rounded=0;whiteSpace=wrap;html=1;" vertex="1" parent="1">
          <mxGeometry x="622.5" y="180" width="255" height="30" as="geometry" />
        </mxCell>
        <mxCell id="Z9vBDN6EsxqwjLQ1cads-111" value="&lt;div&gt;Terminal&lt;/div&gt;(manual trigger)" style="rounded=0;whiteSpace=wrap;html=1;" vertex="1" parent="1">
          <mxGeometry x="370" y="40" width="120" height="60" as="geometry" />
        </mxCell>
        <mxCell id="Z9vBDN6EsxqwjLQ1cads-112" value="ROS service call: {}" style="text;html=1;align=center;verticalAlign=middle;whiteSpace=wrap;rounded=0;" vertex="1" parent="1">
          <mxGeometry x="497.5" y="40" width="125" height="30" as="geometry" />
        </mxCell>
        <mxCell id="Z9vBDN6EsxqwjLQ1cads-113" value="" style="curved=1;endArrow=classic;html=1;rounded=0;exitX=1;exitY=0.5;exitDx=0;exitDy=0;entryX=0;entryY=0.5;entryDx=0;entryDy=0;" edge="1" parent="1" source="Z9vBDN6EsxqwjLQ1cads-111" target="Z9vBDN6EsxqwjLQ1cads-107">
          <mxGeometry width="50" height="50" relative="1" as="geometry">
            <mxPoint x="910" y="380" as="sourcePoint" />
            <mxPoint x="960" y="330" as="targetPoint" />
            <Array as="points">
              <mxPoint x="530" y="80" />
              <mxPoint x="560" y="130" />
            </Array>
          </mxGeometry>
        </mxCell>
        <mxCell id="Z9vBDN6EsxqwjLQ1cads-114" value="Run grasping script (single view)" style="shape=process;whiteSpace=wrap;html=1;backgroundOutline=1;" vertex="1" parent="1">
          <mxGeometry x="910" y="140" width="140" height="30" as="geometry" />
        </mxCell>
      </root>
    </mxGraphModel>
  </diagram>
</mxfile>
